<svg width="512" height="512" viewBox="0 0 512 512" fill="none" xmlns="http://www.w3.org/2000/svg">
<rect width="512" height="512" rx="100" fill="#FFC269"/>
<path d="M133 134L380 134.098" stroke="black" stroke-width="8" stroke-linecap="round"/>
<path d="M380 135V147" stroke="black" stroke-width="8" stroke-linecap="round"/>
<path d="M133 135V319.007" stroke="black" stroke-width="8" stroke-linecap="round"/>
<path d="M380 166V314" stroke="black" stroke-width="8" stroke-linecap="round"/>
<path d="M196 378H317.905" stroke="black" stroke-width="8" stroke-linecap="round"/>
<path d="M318 378L380 316" stroke="black" stroke-width="8" stroke-linecap="round"/>
<path d="M133 320L196 378" stroke="black" stroke-width="8" stroke-linecap="round"/>
<path d="M163.597 154.67L356.991 154.67" stroke="black" stroke-width="8" stroke-linecap="round"/>
<path d="M163.009 235.201L351.113 235.201" stroke="black" stroke-width="8" stroke-linecap="round"/>
<path d="M216.501 175.831V215.803" stroke="black" stroke-width="8" stroke-linecap="round"/>
<path d="M233 216L256 177" stroke="black" stroke-width="8" stroke-linecap="round"/>
<path d="M313 215L329 177" stroke="black" stroke-width="8" stroke-linecap="round"/>
<path d="M329 177L345 215" stroke="black" stroke-width="8" stroke-linecap="round"/>
<path d="M270 217L296 177" stroke="black" stroke-width="8" stroke-linecap="round"/>
<path d="M232.96 176.419H255.885" stroke="black" stroke-width="8" stroke-linecap="round"/>
<path d="M232.372 216.979H255.885" stroke="black" stroke-width="8" stroke-linecap="round"/>
<path d="M271.756 176.419H296.445" stroke="black" stroke-width="8" stroke-linecap="round"/>
<path d="M269.993 216.979H295.269" stroke="black" stroke-width="8" stroke-linecap="round"/>
<path d="M319 208L338 208" stroke="black" stroke-width="8" stroke-linecap="round"/>
<path d="M173 177L173.002 214.628" stroke="black" stroke-width="8" stroke-linecap="round"/>
<path d="M174.178 177.007C175.65 177.007 191.493 175.779 192.4 177.595" stroke="black" stroke-width="8" stroke-linecap="round"/>
<path d="M193.5 178C206 185.5 198.5 201 190 200" stroke="black" stroke-width="8" stroke-linecap="round"/>
<path d="M215 280L256.377 355.475" stroke="black" stroke-width="8" stroke-linecap="round"/>
<path d="M299 279L283 310" stroke="black" stroke-width="8" stroke-linecap="round"/>
<path d="M268 337L257 356" stroke="black" stroke-width="8" stroke-linecap="round"/>
<circle cx="269" cy="328" r="9" fill="#E5636D" stroke="black" stroke-width="6"/>
<circle cx="241" cy="308" r="9" fill="#E5636D" stroke="black" stroke-width="6"/>
<path d="M265 300L269 304" stroke="black" stroke-width="8" stroke-linecap="round"/>
<path d="M249 328L244 332" stroke="black" stroke-width="8" stroke-linecap="round"/>
<path d="M214.5 279C240.5 265 272.5 265 299 279" stroke="black" stroke-width="8" stroke-linecap="round"/>
<path d="M223 292C248.5 280.5 266 281.5 292 292" stroke="black" stroke-width="8" stroke-linecap="round"/>
<path d="M207.37 106.38L207.22 111.33C207.22 114.05 207.3 116.49 207.46 118.65C207.62 120.79 207.98 123.12 208.54 125.64C208.1 126 207.4 126.18 206.44 126.18C204.58 126.18 203.65 125.37 203.65 123.75C203.65 122.41 203.71 120.36 203.83 117.6C203.97 114.84 204.04 112.68 204.04 111.12C202.96 112.68 201.82 114.61 200.62 116.91C199.44 119.19 198.85 120.59 198.85 121.11C198.85 121.63 198.9 122.03 199 122.31C198.56 122.59 197.97 122.73 197.23 122.73C196.51 122.73 195.9 122.53 195.4 122.13C194.92 121.73 194.51 121.18 194.17 120.48C193.85 119.78 193.27 118.41 192.43 116.37C191.61 114.31 190.86 112.54 190.18 111.06C189.66 114.28 189.4 117.13 189.4 119.61C189.4 122.09 189.48 124.1 189.64 125.64C189 125.88 188.36 126 187.72 126C186.44 126 185.8 125.36 185.8 124.08C185.8 123.1 186.02 121.15 186.46 118.23C186.92 115.29 187.15 112.81 187.15 110.79C187.15 108.77 187.04 106.88 186.82 105.12C187.9 104.84 188.74 104.7 189.34 104.7C190.44 104.7 191.18 105.09 191.56 105.87C192.16 107.13 193.04 109.14 194.2 111.9C195.38 114.64 196.34 116.75 197.08 118.23C197.28 117.81 197.74 116.91 198.46 115.53C199.2 114.13 199.81 112.94 200.29 111.96C200.79 110.96 201.29 109.78 201.79 108.42C202.31 107.04 202.64 105.84 202.78 104.82C203.5 104.62 204.2 104.52 204.88 104.52C205.58 104.52 206.17 104.67 206.65 104.97C207.13 105.27 207.37 105.74 207.37 106.38ZM225.139 111.87C224.599 114.17 224.329 116.48 224.329 118.8C224.329 121.1 224.589 123.38 225.109 125.64C224.389 125.88 223.649 126 222.889 126C222.129 126 221.599 125.78 221.299 125.34C220.999 124.88 220.849 124.23 220.849 123.39C220.849 122.53 220.979 121.36 221.239 119.88C219.819 122.92 218.449 124.84 217.129 125.64C216.529 126 215.909 126.18 215.269 126.18C213.749 126.18 212.569 125.62 211.729 124.5C210.889 123.36 210.469 121.95 210.469 120.27C210.469 117.71 211.179 115.47 212.599 113.55C214.019 111.61 215.859 110.64 218.119 110.64C220.399 110.64 222.739 111.05 225.139 111.87ZM221.209 113.67C220.149 113.35 219.249 113.19 218.509 113.19C217.009 113.19 215.889 113.52 215.149 114.18C214.469 115.86 214.129 117.57 214.129 119.31C214.129 120.23 214.269 121.16 214.549 122.1C214.849 123.04 215.299 123.51 215.899 123.51C216.599 123.51 217.499 122.48 218.599 120.42C219.699 118.36 220.569 116.11 221.209 113.67ZM250.697 113.88L250.397 120.3C250.397 122.24 250.677 124.08 251.237 125.82C250.677 126.06 250.037 126.18 249.317 126.18C247.617 126.18 246.767 125.23 246.767 123.33C246.767 122.47 246.877 121.03 247.097 119.01C247.317 116.97 247.427 115.69 247.427 115.17C247.427 114.17 247.017 113.67 246.197 113.67C245.297 113.67 244.217 114.59 242.957 116.43C241.717 118.27 241.097 119.71 241.097 120.75C241.197 122.33 241.477 123.9 241.937 125.46C241.177 125.7 240.537 125.82 240.017 125.82C238.317 125.82 237.467 124.87 237.467 122.97C237.467 122.17 237.577 120.83 237.797 118.95C238.017 117.07 238.127 115.89 238.127 115.41C238.127 114.41 237.677 113.91 236.777 113.91C236.157 113.91 235.447 114.37 234.647 115.29C233.847 116.21 233.167 117.23 232.607 118.35C232.067 119.45 231.777 120.33 231.737 120.99C231.837 122.71 232.037 124.26 232.337 125.64C231.697 125.88 231.027 126 230.327 126C229.647 126 229.087 125.84 228.647 125.52C228.227 125.18 228.017 124.72 228.017 124.14C228.017 123.54 228.107 122.48 228.287 120.96C228.467 119.42 228.557 117.9 228.557 116.4C228.557 114.88 228.327 113.14 227.867 111.18C228.507 110.94 229.187 110.82 229.907 110.82C230.627 110.82 231.207 111.03 231.647 111.45C232.107 111.87 232.337 112.43 232.337 113.13C232.337 113.49 232.267 114.37 232.127 115.77C232.867 114.45 233.807 113.31 234.947 112.35C236.087 111.37 237.227 110.88 238.367 110.88C240.387 110.88 241.397 111.96 241.397 114.12C241.397 114.66 241.367 115.26 241.307 115.92C242.047 114.52 242.997 113.29 244.157 112.23C245.337 111.17 246.507 110.64 247.667 110.64C249.687 110.64 250.697 111.72 250.697 113.88ZM268 111.87C267.46 114.17 267.19 116.48 267.19 118.8C267.19 121.1 267.45 123.38 267.97 125.64C267.25 125.88 266.51 126 265.75 126C264.99 126 264.46 125.78 264.16 125.34C263.86 124.88 263.71 124.23 263.71 123.39C263.71 122.53 263.84 121.36 264.1 119.88C262.68 122.92 261.31 124.84 259.99 125.64C259.39 126 258.77 126.18 258.13 126.18C256.61 126.18 255.43 125.62 254.59 124.5C253.75 123.36 253.33 121.95 253.33 120.27C253.33 117.71 254.04 115.47 255.46 113.55C256.88 111.61 258.72 110.64 260.98 110.64C263.26 110.64 265.6 111.05 268 111.87ZM264.07 113.67C263.01 113.35 262.11 113.19 261.37 113.19C259.87 113.19 258.75 113.52 258.01 114.18C257.33 115.86 256.99 117.57 256.99 119.31C256.99 120.23 257.13 121.16 257.41 122.1C257.71 123.04 258.16 123.51 258.76 123.51C259.46 123.51 260.36 122.48 261.46 120.42C262.56 118.36 263.43 116.11 264.07 113.67ZM300.915 106.38L300.765 111.33C300.765 114.05 300.845 116.49 301.005 118.65C301.165 120.79 301.525 123.12 302.085 125.64C301.645 126 300.945 126.18 299.985 126.18C298.125 126.18 297.195 125.37 297.195 123.75C297.195 122.41 297.255 120.36 297.375 117.6C297.515 114.84 297.585 112.68 297.585 111.12C296.505 112.68 295.365 114.61 294.165 116.91C292.985 119.19 292.395 120.59 292.395 121.11C292.395 121.63 292.445 122.03 292.545 122.31C292.105 122.59 291.515 122.73 290.775 122.73C290.055 122.73 289.445 122.53 288.945 122.13C288.465 121.73 288.055 121.18 287.715 120.48C287.395 119.78 286.815 118.41 285.975 116.37C285.155 114.31 284.405 112.54 283.725 111.06C283.205 114.28 282.945 117.13 282.945 119.61C282.945 122.09 283.025 124.1 283.185 125.64C282.545 125.88 281.905 126 281.265 126C279.985 126 279.345 125.36 279.345 124.08C279.345 123.1 279.565 121.15 280.005 118.23C280.465 115.29 280.695 112.81 280.695 110.79C280.695 108.77 280.585 106.88 280.365 105.12C281.445 104.84 282.285 104.7 282.885 104.7C283.985 104.7 284.725 105.09 285.105 105.87C285.705 107.13 286.585 109.14 287.745 111.9C288.925 114.64 289.885 116.75 290.625 118.23C290.825 117.81 291.285 116.91 292.005 115.53C292.745 114.13 293.355 112.94 293.835 111.96C294.335 110.96 294.835 109.78 295.335 108.42C295.855 107.04 296.185 105.84 296.325 104.82C297.045 104.62 297.745 104.52 298.425 104.52C299.125 104.52 299.715 104.67 300.195 104.97C300.675 105.27 300.915 105.74 300.915 106.38ZM305.094 111.09C305.734 110.91 306.374 110.82 307.014 110.82C307.674 110.82 308.234 111.02 308.694 111.42C309.154 111.82 309.384 112.34 309.384 112.98C309.384 113.6 309.274 114.69 309.054 116.25C308.854 117.79 308.754 118.99 308.754 119.85C308.754 122.09 308.964 124.02 309.384 125.64C308.764 125.88 308.094 126 307.374 126C306.654 126 306.084 125.84 305.664 125.52C305.244 125.18 305.034 124.7 305.034 124.08C305.034 123.44 305.154 122.4 305.394 120.96C305.634 119.52 305.754 118.33 305.754 117.39C305.754 114.89 305.534 112.79 305.094 111.09ZM305.484 104.31C306.184 103.99 306.874 103.83 307.554 103.83C308.234 103.83 308.734 104.01 309.054 104.37C309.394 104.71 309.564 105.22 309.564 105.9C309.564 106.58 309.334 107.18 308.874 107.7C308.434 108.22 307.854 108.48 307.134 108.48C305.654 108.48 304.914 107.71 304.914 106.17C304.914 105.49 305.104 104.87 305.484 104.31ZM326.331 111.87C325.791 114.17 325.521 116.48 325.521 118.8C325.521 121.1 325.781 123.38 326.301 125.64C325.581 125.88 324.841 126 324.081 126C323.321 126 322.791 125.78 322.491 125.34C322.191 124.88 322.041 124.23 322.041 123.39C322.041 122.53 322.171 121.36 322.431 119.88C321.011 122.92 319.641 124.84 318.321 125.64C317.721 126 317.101 126.18 316.461 126.18C314.941 126.18 313.761 125.62 312.921 124.5C312.081 123.36 311.661 121.95 311.661 120.27C311.661 117.71 312.371 115.47 313.791 113.55C315.211 111.61 317.051 110.64 319.311 110.64C321.591 110.64 323.931 111.05 326.331 111.87ZM322.401 113.67C321.341 113.35 320.441 113.19 319.701 113.19C318.201 113.19 317.081 113.52 316.341 114.18C315.661 115.86 315.321 117.57 315.321 119.31C315.321 120.23 315.461 121.16 315.741 122.1C316.041 123.04 316.491 123.51 317.091 123.51C317.791 123.51 318.691 122.48 319.791 120.42C320.891 118.36 321.761 116.11 322.401 113.67Z" fill="black"/>
<path d="M211.54 406.64C210.9 406.88 210.22 407 209.5 407C208.78 407 208.15 406.77 207.61 406.31C207.09 405.85 206.83 405.22 206.83 404.42C206.83 403.62 206.93 402.09 207.13 399.83C207.33 397.55 207.43 395.73 207.43 394.37C207.43 390.87 207.22 388.1 206.8 386.06C207.44 385.82 208.12 385.7 208.84 385.7C209.56 385.7 210.18 385.93 210.7 386.39C211.24 386.85 211.51 387.48 211.51 388.28C211.51 389.08 211.41 390.62 211.21 392.9C211.01 395.16 210.91 396.97 210.91 398.33C210.91 401.83 211.12 404.6 211.54 406.64ZM216.08 387.41C216.72 387.09 217.37 386.93 218.03 386.93C218.69 386.93 219.22 387.14 219.62 387.56C220.04 387.98 220.25 388.6 220.25 389.42C220.25 390.24 220.2 391.17 220.1 392.21C221.6 392.21 223.03 392 224.39 391.58C224.63 391.98 224.75 392.45 224.75 392.99C224.75 393.51 224.51 393.94 224.03 394.28C223.57 394.6 223.1 394.76 222.62 394.76C222.14 394.76 221.6 394.7 221 394.58C220.4 394.46 220.01 394.39 219.83 394.37C219.81 394.55 219.75 394.91 219.65 395.45C219.57 395.99 219.5 396.46 219.44 396.86C219.28 397.96 219.2 399.14 219.2 400.4C219.2 403.14 220.09 404.51 221.87 404.51C222.53 404.51 223.29 404.28 224.15 403.82C224.41 404.2 224.54 404.69 224.54 405.29C224.54 405.89 224.21 406.36 223.55 406.7C222.91 407.02 222.14 407.18 221.24 407.18C217.72 407.18 215.96 405.18 215.96 401.18C215.96 400.6 216.04 399.55 216.2 398.03C216.38 396.51 216.47 395.28 216.47 394.34C215.51 394.4 214.74 394.57 214.16 394.85C213.92 394.49 213.8 394.08 213.8 393.62C213.8 393.14 213.97 392.75 214.31 392.45C214.65 392.13 215.07 391.97 215.57 391.97C216.07 391.97 216.4 391.98 216.56 392C216.58 391.84 216.59 391.63 216.59 391.37C216.59 389.87 216.42 388.55 216.08 387.41ZM240.456 392.87C239.916 395.17 239.646 397.48 239.646 399.8C239.646 402.1 239.906 404.38 240.426 406.64C239.706 406.88 238.966 407 238.206 407C237.446 407 236.916 406.78 236.616 406.34C236.316 405.88 236.166 405.23 236.166 404.39C236.166 403.53 236.296 402.36 236.556 400.88C235.136 403.92 233.766 405.84 232.446 406.64C231.846 407 231.226 407.18 230.586 407.18C229.066 407.18 227.886 406.62 227.046 405.5C226.206 404.36 225.786 402.95 225.786 401.27C225.786 398.71 226.496 396.47 227.916 394.55C229.336 392.61 231.176 391.64 233.436 391.64C235.716 391.64 238.056 392.05 240.456 392.87ZM236.526 394.67C235.466 394.35 234.566 394.19 233.826 394.19C232.326 394.19 231.206 394.52 230.466 395.18C229.786 396.86 229.446 398.57 229.446 400.31C229.446 401.23 229.586 402.16 229.866 403.1C230.166 404.04 230.616 404.51 231.216 404.51C231.916 404.51 232.816 403.48 233.916 401.42C235.016 399.36 235.886 397.11 236.526 394.67ZM243.423 384.86C244.063 384.62 244.723 384.5 245.403 384.5C246.083 384.5 246.643 384.73 247.083 385.19C247.543 385.63 247.773 386.24 247.773 387.02C247.773 387.78 247.663 389.32 247.443 391.64C247.243 393.94 247.143 395.75 247.143 397.07C247.143 400.33 247.373 403.52 247.833 406.64C247.193 406.88 246.513 407 245.793 407C244.253 407 243.483 406.25 243.483 404.75C243.483 404.03 243.593 402.62 243.813 400.52C244.033 398.4 244.143 396.7 244.143 395.42C244.143 391.16 243.903 387.64 243.423 384.86ZM251.27 392.09C251.91 391.91 252.55 391.82 253.19 391.82C253.85 391.82 254.41 392.02 254.87 392.42C255.33 392.82 255.56 393.34 255.56 393.98C255.56 394.6 255.45 395.69 255.23 397.25C255.03 398.79 254.93 399.99 254.93 400.85C254.93 403.09 255.14 405.02 255.56 406.64C254.94 406.88 254.27 407 253.55 407C252.83 407 252.26 406.84 251.84 406.52C251.42 406.18 251.21 405.7 251.21 405.08C251.21 404.44 251.33 403.4 251.57 401.96C251.81 400.52 251.93 399.33 251.93 398.39C251.93 395.89 251.71 393.79 251.27 392.09ZM251.66 385.31C252.36 384.99 253.05 384.83 253.73 384.83C254.41 384.83 254.91 385.01 255.23 385.37C255.57 385.71 255.74 386.22 255.74 386.9C255.74 387.58 255.51 388.18 255.05 388.7C254.61 389.22 254.03 389.48 253.31 389.48C251.83 389.48 251.09 388.71 251.09 387.17C251.09 386.49 251.28 385.87 251.66 385.31ZM272.506 392.87C271.966 395.17 271.696 397.48 271.696 399.8C271.696 402.1 271.956 404.38 272.476 406.64C271.756 406.88 271.016 407 270.256 407C269.496 407 268.966 406.78 268.666 406.34C268.366 405.88 268.216 405.23 268.216 404.39C268.216 403.53 268.346 402.36 268.606 400.88C267.186 403.92 265.816 405.84 264.496 406.64C263.896 407 263.276 407.18 262.636 407.18C261.116 407.18 259.936 406.62 259.096 405.5C258.256 404.36 257.836 402.95 257.836 401.27C257.836 398.71 258.546 396.47 259.966 394.55C261.386 392.61 263.226 391.64 265.486 391.64C267.766 391.64 270.106 392.05 272.506 392.87ZM268.576 394.67C267.516 394.35 266.616 394.19 265.876 394.19C264.376 394.19 263.256 394.52 262.516 395.18C261.836 396.86 261.496 398.57 261.496 400.31C261.496 401.23 261.636 402.16 261.916 403.1C262.216 404.04 262.666 404.51 263.266 404.51C263.966 404.51 264.866 403.48 265.966 401.42C267.066 399.36 267.936 397.11 268.576 394.67ZM289.124 394.88L288.824 401.48C288.824 403.3 289.104 405.08 289.664 406.82C289.104 407.06 288.464 407.18 287.744 407.18C286.044 407.18 285.194 406.23 285.194 404.33C285.194 403.47 285.304 402.03 285.524 400.01C285.744 397.97 285.854 396.69 285.854 396.17C285.854 395.17 285.404 394.67 284.504 394.67C283.844 394.67 283.094 395.15 282.254 396.11C281.434 397.05 280.724 398.11 280.124 399.29C279.544 400.45 279.204 401.41 279.104 402.17C279.184 403.73 279.384 405.22 279.704 406.64C279.064 406.88 278.394 407 277.694 407C277.014 407 276.454 406.84 276.014 406.52C275.594 406.18 275.384 405.72 275.384 405.14C275.384 404.54 275.474 403.48 275.654 401.96C275.834 400.42 275.924 398.9 275.924 397.4C275.924 395.88 275.694 394.14 275.234 392.18C275.874 391.94 276.554 391.82 277.274 391.82C277.994 391.82 278.574 392.03 279.014 392.45C279.474 392.87 279.704 393.39 279.704 394.01C279.704 394.63 279.624 395.62 279.464 396.98C280.224 395.56 281.214 394.32 282.434 393.26C283.654 392.18 284.874 391.64 286.094 391.64C288.114 391.64 289.124 392.72 289.124 394.88ZM298.182 407.36C295.982 407.36 294.362 406.72 293.322 405.44C292.282 404.14 291.762 402.34 291.762 400.04C291.762 397.72 292.452 395.71 293.832 394.01C295.212 392.31 296.982 391.46 299.142 391.46C303.582 391.46 305.802 393.96 305.802 398.96C305.802 401.3 305.082 403.29 303.642 404.93C302.202 406.55 300.382 407.36 298.182 407.36ZM296.022 394.76C295.662 395.92 295.482 397.08 295.482 398.24C295.482 399.4 295.522 400.3 295.602 400.94C295.682 401.58 295.832 402.22 296.052 402.86C296.512 404.16 297.412 404.81 298.752 404.81C300.112 404.81 301.002 404.45 301.422 403.73C301.862 403.01 302.082 401.9 302.082 400.4C302.082 396.14 301.072 394.01 299.052 394.01C297.892 394.01 296.882 394.26 296.022 394.76Z" fill="black"/>
</svg>
